<?xml version="1.0" encoding="UTF-8" standalone="no"?><!DOCTYPE svg PUBLIC "-//W3C//DTD SVG 1.1//EN" "http://www.w3.org/Graphics/SVG/1.1/DTD/svg11.dtd"><svg width="100%" height="100%" viewBox="0 0 32 32" version="1.1" xmlns="http://www.w3.org/2000/svg" xmlns:xlink="http://www.w3.org/1999/xlink" xml:space="preserve" xmlns:serif="http://www.serif.com/" style="fill-rule:evenodd;clip-rule:evenodd;stroke-linecap:round;stroke-linejoin:round;"><path d="M16,9.251c-4.031,-0.068 -8.2,2.749 -10.821,5.634c-0.275,0.306 -0.427,0.702 -0.427,1.113c-0,0.411 0.152,0.808 0.427,1.113c2.564,2.824 6.721,5.706 10.821,5.637c4.1,0.069 8.258,-2.813 10.824,-5.637c0.275,-0.305 0.427,-0.702 0.427,-1.113c0,-0.411 -0.152,-0.808 -0.427,-1.113c-2.624,-2.885 -6.793,-5.702 -10.824,-5.634Z" style="fill:none;fill-rule:nonzero;stroke:#5d5d67;stroke-width:1.5px;"/><path d="M19.75,16c-0,0.742 -0.22,1.467 -0.633,2.083c-0.412,0.617 -0.997,1.097 -1.683,1.381c-0.685,0.284 -1.439,0.358 -2.166,0.213c-0.728,-0.145 -1.396,-0.502 -1.92,-1.027c-0.524,-0.524 -0.881,-1.192 -1.026,-1.92c-0.145,-0.727 -0.07,-1.481 0.213,-2.166c0.284,-0.685 0.765,-1.271 1.382,-1.683c0.616,-0.412 1.341,-0.632 2.083,-0.632c0.493,-0 0.98,0.097 1.436,0.285c0.454,0.189 0.868,0.465 1.216,0.813c0.349,0.349 0.625,0.762 0.813,1.218c0.189,0.455 0.285,0.942 0.285,1.435Z" style="fill:none;fill-rule:nonzero;stroke:#5d5d67;stroke-width:1.5px;"/></svg>